#N canvas 649 192 772 579 12;
#X obj 65 109 bng 15 250 50 0 empty empty empty 17 7 0 10 -262144 -1
-1;
#X msg 65 159 0.2 0 \, 0 1 0;
#X obj 65 183 vline~;
#X obj 198 184 vline~;
#X obj 197 216 osc~;
#X obj 202 256 *~;
#X obj 322 153 vline~;
#X obj 322 177 pow~ 1.5;
#X msg 392 305 0.05 4 \, 0 100 4;
#X obj 392 329 vline~;
#X obj 292 306 noise~;
#X obj 292 330 lop~ 300;
#X obj 374 374 *~;
#X msg 322 124 1 4 \, 0.9 65 4 \, 0 660 69;
#X msg 198 152 250 0 \, 50 100 0;
#X obj 137 518 outlet~;
#X obj 134 481 *~ 1;
#X obj 65 69 inlet;
#X connect 0 0 1 0;
#X connect 0 0 13 0;
#X connect 0 0 8 0;
#X connect 0 0 14 0;
#X connect 1 0 2 0;
#X connect 2 0 16 0;
#X connect 3 0 4 0;
#X connect 4 0 5 0;
#X connect 5 0 16 0;
#X connect 6 0 7 0;
#X connect 7 0 5 1;
#X connect 8 0 9 0;
#X connect 9 0 12 1;
#X connect 10 0 11 0;
#X connect 11 0 12 0;
#X connect 12 0 16 0;
#X connect 13 0 6 0;
#X connect 14 0 3 0;
#X connect 16 0 15 0;
#X connect 17 0 0 0;
