#N canvas 156 34 1738 759 12;
#X obj 635 28 inlet;
#X obj 17 11 tgl 15 0 empty empty empty 17 7 0 10 -262144 -1 -1 0 1
;
#X msg 17 33 \; pd dsp \$1;
#X obj 637 64 sel 0 1 2 3 4 5 6;
#X obj 25 166 bng 15 250 50 0 empty empty empty 17 7 0 10 -262144 -1
-1;
#X obj 222 162 bng 15 250 50 0 empty empty empty 17 7 0 10 -262144
-1 -1;
#X obj 425 177 bng 15 250 50 0 empty empty empty 17 7 0 10 -262144
-1 -1;
#X obj 639 163 bng 15 250 50 0 empty empty empty 17 7 0 10 -262144
-1 -1;
#X obj 1049 175 bng 15 250 50 0 empty empty empty 17 7 0 10 -262144
-1 -1;
#X obj 1127 175 bng 15 250 50 0 empty empty empty 17 7 0 10 -262144
-1 -1;
#X obj 1221 173 bng 15 250 50 0 empty empty empty 17 7 0 10 -262144
-1 -1;
#X obj 1318 174 bng 15 250 50 0 empty empty empty 17 7 0 10 -262144
-1 -1;
#X obj 23 221 t b b;
#X obj 640 204 t b b;
#X obj 426 213 t b b;
#X obj 1050 210 t b b;
#X obj 1127 210 t b b;
#X obj 1243 222 t b b;
#X obj 1322 231 t b b;
#X obj 222 198 t b b;
#X obj 9 283 delay 3;
#X obj 9 318 bng 15 250 50 0 empty empty empty 17 7 0 10 -262144 -1
-1;
#X msg 9 355 start;
#X obj 724 503 readsf~;
#X obj 794 546 bng 15 250 50 0 empty empty empty 17 7 0 10 -262144
-1 -1;
#X obj 754 613 env~;
#X obj 757 660 -100;
#X obj 763 699 vu 15 120 empty empty -1 -8 0 10 -66577 -1 1 0;
#X obj 660 630 outlet~;
#X msg 67 317 open building1.wav;
#X obj 216 284 delay 3;
#X obj 216 319 bng 15 250 50 0 empty empty empty 17 7 0 10 -262144
-1 -1;
#X msg 216 356 start;
#X msg 277 317 open building2.wav;
#X obj 432 281 delay 3;
#X obj 432 316 bng 15 250 50 0 empty empty empty 17 7 0 10 -262144
-1 -1;
#X msg 433 363 start;
#X msg 493 314 open building3.wav;
#X obj 646 282 delay 3;
#X obj 646 317 bng 15 250 50 0 empty empty empty 17 7 0 10 -262144
-1 -1;
#X msg 645 359 start;
#X msg 750 294 open building4.wav;
#X connect 0 0 3 0;
#X connect 1 0 2 0;
#X connect 3 0 4 0;
#X connect 3 1 5 0;
#X connect 3 2 6 0;
#X connect 3 3 7 0;
#X connect 3 4 8 0;
#X connect 3 5 9 0;
#X connect 3 6 10 0;
#X connect 3 7 11 0;
#X connect 4 0 12 0;
#X connect 5 0 19 0;
#X connect 6 0 14 0;
#X connect 7 0 13 0;
#X connect 8 0 15 0;
#X connect 9 0 16 0;
#X connect 10 0 17 0;
#X connect 11 0 18 0;
#X connect 12 0 20 0;
#X connect 12 1 29 0;
#X connect 13 0 38 0;
#X connect 13 1 41 0;
#X connect 14 0 34 0;
#X connect 14 1 37 0;
#X connect 19 0 30 0;
#X connect 19 1 33 0;
#X connect 20 0 21 0;
#X connect 21 0 22 0;
#X connect 22 0 23 0;
#X connect 23 0 25 0;
#X connect 23 0 28 0;
#X connect 23 1 24 0;
#X connect 25 0 26 0;
#X connect 26 0 27 0;
#X connect 29 0 23 0;
#X connect 30 0 31 0;
#X connect 31 0 32 0;
#X connect 32 0 23 0;
#X connect 33 0 23 0;
#X connect 34 0 35 0;
#X connect 35 0 36 0;
#X connect 36 0 23 0;
#X connect 37 0 23 0;
#X connect 38 0 39 0;
#X connect 39 0 40 0;
#X connect 40 0 23 0;
#X connect 41 0 23 0;
