#N canvas 428 384 610 382 12;
#X obj 79 99 *~;
#X obj 105 133 hsl 128 15 0 1 0 0 empty empty Volume 5 6 0 10 -204800
-1 -1 6350 1;
#X obj 54 289 dac~ 1;
#X obj 52 131 swap 1;
#X obj 52 153 -;
#X obj 53 260 *~;
#X obj 52 178 vsl 15 60 0 1 0 0 empty empty empty 0 -9 0 10 -262144
-1 -1 2950 1;
#X obj 123 262 *~;
#X obj 122 180 vsl 15 60 0 1 0 0 empty empty empty 0 -9 0 10 -262144
-1 -1 2950 1;
#X obj 124 291 dac~ 2;
#X floatatom 122 101 5 0 0 0 - - -;
#X obj 79 229 *~ 1;
#X obj 122 40 inlet;
#X obj 52 38 inlet~;
#X text 143 6 Stereo Output;
#X obj 388 36 inlet;
#X text 443 30 inlet für volume;
#X connect 0 0 11 0;
#X connect 1 0 0 1;
#X connect 3 0 4 0;
#X connect 3 1 4 1;
#X connect 4 0 6 0;
#X connect 5 0 2 0;
#X connect 6 0 5 1;
#X connect 7 0 9 0;
#X connect 8 0 7 1;
#X connect 8 0 3 0;
#X connect 10 0 8 0;
#X connect 11 0 5 0;
#X connect 11 0 7 0;
#X connect 12 0 10 0;
#X connect 13 0 0 0;
#X connect 15 0 1 0;
